<svg width="640" height="360" viewBox="0 0 640 360" fill="none" xmlns="http://www.w3.org/2000/svg">
  <rect width="640" height="360" rx="24" fill="#F7F9FC"/>
  <ellipse cx="320" cy="290" rx="240" ry="36" fill="#E8EEF7"/>
  <g filter="url(#shadow)">
    <rect x="156" y="124" width="328" height="120" rx="18" fill="#0F172A"/>
    <rect x="168" y="136" width="304" height="96" rx="12" fill="url(#body)"/>
    <rect x="188" y="152" width="40" height="40" rx="6" fill="#0F172A"/>
    <rect x="240" y="152" width="40" height="40" rx="6" fill="#0F172A"/>
    <rect x="292" y="152" width="40" height="40" rx="6" fill="#0F172A"/>
    <rect x="344" y="152" width="40" height="40" rx="6" fill="#0F172A"/>
    <rect x="396" y="152" width="40" height="40" rx="6" fill="#0F172A"/>
    <rect x="168" y="178" width="304" height="6" rx="3" fill="#0F172A" opacity=".35"/>
    <rect x="292" y="112" width="56" height="16" rx="4" fill="#0F172A"/>
    <rect x="236" y="112" width="56" height="10" rx="3" fill="#0F172A" opacity=".5"/>
    <rect x="348" y="112" width="56" height="10" rx="3" fill="#0F172A" opacity=".5"/>
    <rect x="136" y="134" width="24" height="64" rx="6" fill="#1E293B"/>
    <rect x="480" y="134" width="24" height="64" rx="6" fill="#1E293B"/>
    <rect x="196" y="202" width="16" height="32" rx="4" fill="#0F172A"/>
    <rect x="430" y="202" width="16" height="32" rx="4" fill="#0F172A"/>
    <rect x="220" y="210" width="12" height="24" rx="3" fill="#0F172A"/>
    <rect x="408" y="210" width="12" height="24" rx="3" fill="#0F172A"/>
    <rect x="306" y="214" width="28" height="22" rx="6" fill="#0F172A"/>
  </g>
  <path d="M110 128H530" stroke="#0F172A" stroke-width="8" stroke-linecap="round"/>
  <path d="M220 110H420" stroke="#0F172A" stroke-width="6" stroke-linecap="round"/>
  <circle cx="212" cy="248" r="22" fill="#0F172A"/>
  <circle cx="212" cy="248" r="11" fill="#F7F9FC"/>
  <circle cx="428" cy="248" r="22" fill="#0F172A"/>
  <circle cx="428" cy="248" r="11" fill="#F7F9FC"/>
  <g fill="#E11D48">
    <path d="M310 156h20v28c0 5.523-4.477 10-10 10s-10-4.477-10-10v-28Z" opacity=".9"/>
    <path d="M322 140a12 12 0 0 1-24 0c0-6.627 5.373-12 12-12s12 5.373 12 12Z"/>
  </g>
  <text x="320" y="320" text-anchor="middle" fill="#0F172A" font-family="Inter, Arial, sans-serif" font-size="36" font-weight="700">404 • Rota não encontrada</text>
  <text x="320" y="346" text-anchor="middle" fill="#475569" font-family="Inter, Arial, sans-serif" font-size="16" font-weight="500">O Chinook não achou essa pista de pouso.</text>
  <defs>
    <linearGradient id="body" x1="168" y1="136" x2="472" y2="232" gradientUnits="userSpaceOnUse">
      <stop stop-color="#334155"/>
      <stop offset="1" stop-color="#0F172A"/>
    </linearGradient>
    <filter id="shadow" x="126" y="104" width="388" height="170" color-interpolation-filters="sRGB" filterUnits="userSpaceOnUse">
      <feFlood flood-opacity="0" result="BackgroundImageFix"/>
      <feGaussianBlur in="BackgroundImageFix" stdDeviation="8"/>
      <feComposite in2="SourceAlpha" operator="in" result="effect1_backgroundBlur"/>
      <feOffset dy="8"/>
      <feGaussianBlur stdDeviation="12"/>
      <feColorMatrix values="0 0 0 0 0.0627 0 0 0 0 0.0941 0 0 0 0 0.1569 0 0 0 0.18 0"/>
      <feBlend in="SourceGraphic" in2="effect1_backgroundBlur" result="shape"/>
    </filter>
  </defs>
</svg>
